<svg width="13" height="13" viewBox="0 0 13 13" fill="none" xmlns="http://www.w3.org/2000/svg">
<path d="M3.42626 6.9238H4.85127V12.7903C4.85127 12.9061 4.94512 13 5.06095 13H7.4771C7.59293 13 7.68678 12.9061 7.68678 12.7903V6.95144H9.32495C9.43146 6.95144 9.52108 6.87151 9.53324 6.7657L9.78204 4.60594C9.78888 4.54652 9.77005 4.48701 9.7303 4.44244C9.6905 4.39782 9.63355 4.37228 9.57379 4.37228H7.68686V3.01843C7.68686 2.61032 7.90661 2.40336 8.34005 2.40336C8.40182 2.40336 9.57379 2.40336 9.57379 2.40336C9.68962 2.40336 9.78347 2.30947 9.78347 2.19369V0.211229C9.78347 0.0954032 9.68962 0.00155161 9.57379 0.00155161H7.87352C7.86153 0.000964516 7.8349 0 7.79564 0C7.50063 0 6.47518 0.0579128 5.66515 0.803106C4.76765 1.6289 4.89241 2.61766 4.92222 2.78909V4.37224H3.42626C3.31043 4.37224 3.21658 4.46609 3.21658 4.58191V6.71408C3.21658 6.82991 3.31043 6.9238 3.42626 6.9238Z" fill="#93B474"/>
</svg>
