<svg width="13" height="13" viewBox="0 0 13 13" fill="none" xmlns="http://www.w3.org/2000/svg">
<path d="M9.48744 0H3.51256C1.57574 0 0 1.57574 0 3.51256V9.48744C0 11.4243 1.57574 13 3.51256 13H9.48744C11.4243 13 13 11.4243 13 9.48744V3.51256C13 1.57574 11.4243 0 9.48744 0ZM11.9497 9.48744C11.9497 10.8451 10.8452 11.9497 9.48744 11.9497H3.51256C2.15485 11.9497 1.05026 10.8452 1.05026 9.48744V3.51256C1.05026 2.15485 2.15483 1.05026 3.51256 1.05026H9.48744C10.8451 1.05026 11.9497 2.15483 11.9497 3.51256V9.48744V9.48744Z" fill="#323232"/>
<path d="M9.40942 6.04653C9.317 5.42327 9.03265 4.85838 8.58712 4.41285C8.14159 3.96735 7.5767 3.68297 6.95347 3.59058C6.6697 3.5485 6.382 3.5485 6.09826 3.59058C5.32801 3.70481 4.64838 4.11212 4.18452 4.73752C3.72065 5.36292 3.52807 6.13154 3.6423 6.90174C3.75653 7.67197 4.16385 8.3516 4.78924 8.81548C5.29696 9.19205 5.89897 9.3898 6.51969 9.3898C6.66358 9.3898 6.80851 9.37918 6.95344 9.35768C7.72369 9.24344 8.40332 8.83613 8.86718 8.21073C9.33107 7.58536 9.52366 6.81676 9.40942 6.04653ZM6.79939 8.31877C6.30669 8.39194 5.815 8.26867 5.41492 7.97193C5.01484 7.67519 4.75428 7.2404 4.68123 6.7477C4.60816 6.25499 4.73133 5.7633 5.02807 5.36322C5.32483 4.96314 5.7596 4.70258 6.25233 4.62951C6.34307 4.61605 6.43446 4.60932 6.52584 4.60932C6.61722 4.60932 6.70862 4.61605 6.79937 4.62953C7.61773 4.75088 8.24912 5.38224 8.37049 6.20063C8.52131 7.21773 7.81654 8.16795 6.79939 8.31877Z" fill="#323232"/>
<path d="M10.1575 2.84248C10.0597 2.7447 9.92435 2.68866 9.78617 2.68866C9.648 2.68866 9.51264 2.74467 9.41483 2.84248C9.31705 2.94028 9.26102 3.07541 9.26102 3.21381C9.26102 3.35222 9.31705 3.48735 9.41483 3.58515C9.51264 3.68293 9.648 3.73897 9.78617 3.73897C9.92435 3.73897 10.0597 3.68296 10.1575 3.58515C10.2553 3.48735 10.3113 3.35199 10.3113 3.21381C10.3113 3.07561 10.2553 2.94026 10.1575 2.84248Z" fill="#323232"/>
</svg>
