<svg width="16" height="16" viewBox="0 0 16 16" fill="none" xmlns="http://www.w3.org/2000/svg">
<rect width="16" height="11.2602" transform="matrix(1 0 0 -1 0 13.6301)" fill="white"/>
<path d="M6.91525 5.86315C6.84021 5.82392 6.75814 5.80447 6.67618 5.80447C6.58338 5.80447 6.49079 5.82945 6.40877 5.8791L7.14448 10.7198C6.82949 10.8835 6.45202 10.8708 6.14867 10.6865L6.1486 10.6865C5.84521 10.5022 5.66005 10.173 5.66005 9.81809V6.32059C5.66005 5.96517 5.84572 5.63565 6.14966 5.45148L6.14983 5.45138C6.31126 5.35364 6.49364 5.30447 6.67618 5.30447C6.83733 5.30447 6.99903 5.34276 7.14685 5.42002L6.91525 5.86315ZM6.91525 5.86315L10.2721 7.61752M6.91525 5.86315L7.14687 5.42003L10.5036 7.17435L10.2721 7.61752M10.2721 7.61752C10.4426 7.70661 10.5494 7.88318 10.5492 8.07569C10.5489 8.26805 10.4417 8.44436 10.2709 8.53303L10.2721 7.61752ZM14.9937 12.3416L14.9938 12.3415L0.561459 12.6006L0.953861 12.2917C1.36661 12.8161 2.21301 13.1301 4.30379 13.1301H11.6961C13.7409 13.1301 14.5792 12.8344 14.9937 12.3416ZM10.5013 8.97679L7.14457 10.7198L10.5036 7.17439C10.8395 7.34987 11.0496 7.69752 11.0492 8.07623V8.07636C11.0487 8.45511 10.8375 8.8022 10.5013 8.97678C10.5013 8.97678 10.5013 8.97678 10.5013 8.97679Z" fill="#C4C4C4" stroke="black"/>
</svg>
